<!-- sample rectangle -->

<svg width="472" height="551" viewBox="0 0 472 551" fill="none" xmlns="http://www.w3.org/2000/svg" >

  <ellipse cx="234.607" cy="538.517" rx="234.607" ry="12.4845" fill="url(#paint0_radial_975_307)" fill-opacity="0.7"/>
  <mask id="mask0_975_307" style="mask-type:luminance" maskUnits="userSpaceOnUse" x="0" y="132" width="344" height="345">
    <path d="M0 132.523V476.096H343.425V132.523H0ZM227.459 219.815V168.948L228.458 167.949H274.031L274.63 168.149C277.346 170.206 280.041 172.384 282.657 174.631C257.998 180.204 237.642 197.233 227.459 219.815Z" fill="white"/>
  </mask>
  
  <g id="circle_food" style="cursor: pointer">
    <title id="catTitle">UP Food</title>
    <g mask="url(#mask0_975_307)">
      <path d="M171.713 429.154C240.633 429.154 296.504 373.259 296.504 304.309C296.504 235.36 240.633 179.465 171.713 179.465C102.793 179.465 46.9219 235.36 46.9219 304.309C46.9219 373.259 102.793 429.154 171.713 429.154Z" stroke="url(#paint1_linear_975_307)" stroke-width="90" stroke-miterlimit="10"/>
      <path opacity="0.5" d="M323.13 306.647C324.029 248.459 293.14 189.133 228.948 161.527C232.362 162.127 258.848 168.289 284.215 192.489C309.593 215.76 333.862 257.068 333.024 306.657C333.772 356.195 309.323 397.493 283.736 420.445C258.149 444.325 231.424 449.848 227.58 449.309C291.194 423.042 323.05 364.864 323.13 306.647Z" fill="white" stroke="url(#paint2_linear_975_307)" stroke-miterlimit="10"/>
    </g>
    <path d="M311.517 283.139L295.601 287.961C293.885 288.481 292.238 288.582 290.66 288.264C289.084 287.958 287.677 287.196 286.438 285.98C285.211 284.76 284.261 283.046 283.591 280.837C282.634 277.686 282.73 275.037 283.878 272.889C285.041 270.75 286.997 269.263 289.745 268.431L305.593 263.63L306.819 267.667L291.324 272.36C289.271 272.982 287.903 273.923 287.22 275.183C286.537 276.443 286.487 278.031 287.069 279.949C287.471 281.272 288.027 282.278 288.739 282.969C289.466 283.667 290.337 284.076 291.354 284.197C292.385 284.325 293.54 284.196 294.818 283.809L310.297 279.12L311.517 283.139Z" fill="white"/>
    <path d="M313.91 300.314C314.228 303.615 313.784 306.088 312.576 307.734C311.369 309.38 309.546 310.321 307.108 310.555C305.999 310.662 304.927 310.588 303.889 310.335C302.865 310.092 301.93 309.617 301.085 308.91C300.251 308.201 299.551 307.227 298.983 305.987C298.418 304.758 298.045 303.211 297.865 301.345L297.601 298.616L288.011 299.538L287.606 295.34L313.193 292.88L313.91 300.314ZM310.4 300.369L310.115 297.413L301.102 298.28L301.323 300.571C301.45 301.889 301.709 302.994 302.102 303.886C302.506 304.777 303.069 305.429 303.792 305.842C304.515 306.255 305.43 306.409 306.539 306.302C308.02 306.159 309.08 305.604 309.717 304.637C310.354 303.681 310.582 302.259 310.4 300.369Z" fill="white"/>
    <path d="M287.325 323.162L287.919 319.023L313.368 322.672L311.304 337.039L307.788 336.535L309.257 326.308L301.32 325.169L299.946 334.735L296.447 334.234L297.821 324.667L287.325 323.162Z" fill="white"/>
    <path d="M289.462 355.057C287.918 354.574 286.61 353.944 285.539 353.167C284.468 352.39 283.639 351.487 283.053 350.456C282.478 349.429 282.142 348.306 282.045 347.085C281.96 345.868 282.131 344.577 282.558 343.214C282.958 341.939 283.536 340.838 284.294 339.909C285.064 338.983 285.979 338.257 287.041 337.73C288.111 337.218 289.311 336.937 290.641 336.887C291.972 336.836 293.409 337.053 294.953 337.536C297 338.176 298.624 339.071 299.825 340.219C301.033 341.383 301.805 342.741 302.141 344.295C302.477 345.848 302.36 347.536 301.789 349.358C301.253 351.068 300.405 352.46 299.246 353.533C298.086 354.607 296.675 355.288 295.011 355.578C293.348 355.867 291.498 355.694 289.462 355.057ZM293.681 341.593C292.327 341.17 291.119 340.97 290.055 340.993C288.987 341.027 288.088 341.31 287.356 341.842C286.635 342.378 286.103 343.193 285.76 344.289C285.416 345.384 285.388 346.357 285.674 347.208C285.972 348.062 286.551 348.801 287.412 349.426C288.272 350.051 289.379 350.576 290.733 350.999C292.087 351.423 293.285 351.619 294.326 351.589C295.379 351.563 296.26 351.28 296.97 350.741C297.69 350.205 298.224 349.384 298.571 348.278C299.082 346.646 298.907 345.284 298.045 344.192C297.183 343.1 295.729 342.234 293.681 341.593Z" fill="white"/>
    <path d="M279.881 374.183C278.441 373.445 277.259 372.602 276.336 371.654C275.413 370.707 274.75 369.676 274.347 368.561C273.955 367.452 273.815 366.287 273.928 365.068C274.051 363.854 274.439 362.612 275.092 361.341C275.702 360.153 276.46 359.166 277.365 358.379C278.281 357.598 279.306 357.038 280.443 356.699C281.584 356.376 282.815 356.303 284.134 356.48C285.454 356.656 286.834 357.114 288.273 357.852C290.182 358.831 291.63 359.988 292.618 361.324C293.611 362.676 294.14 364.146 294.208 365.733C294.275 367.321 293.872 368.964 292.999 370.663C292.18 372.257 291.108 373.484 289.782 374.344C288.457 375.205 286.95 375.637 285.261 375.639C283.573 375.642 281.779 375.157 279.881 374.183ZM286.33 361.634C285.067 360.987 283.91 360.584 282.858 360.426C281.8 360.278 280.865 360.405 280.053 360.804C279.252 361.21 278.589 361.923 278.064 362.944C277.539 363.965 277.346 364.919 277.483 365.805C277.631 366.697 278.076 367.525 278.818 368.287C279.56 369.049 280.562 369.754 281.824 370.401C283.086 371.049 284.233 371.446 285.265 371.593C286.307 371.746 287.223 371.617 288.014 371.206C288.816 370.801 289.481 370.083 290.011 369.051C290.793 367.53 290.852 366.158 290.188 364.936C289.525 363.714 288.239 362.613 286.33 361.634Z" fill="white"/>
    <path d="M265.406 376.935C266.81 375.089 268.61 374.117 270.806 374.019C273.004 373.937 275.419 374.896 278.053 376.895C280.714 378.915 282.297 381.007 282.802 383.17C283.299 385.342 282.843 387.356 281.431 389.211C280.835 389.995 280.207 390.598 279.545 391.023C278.893 391.454 278.23 391.745 277.556 391.895C276.875 392.055 276.201 392.117 275.535 392.082L275.418 392.236C275.743 392.409 276.201 392.668 276.792 393.014C277.386 393.377 277.916 393.735 278.383 394.089L283.957 398.321L281.446 401.622L259.654 385.077L261.611 382.504L264.173 383.522L264.279 383.382C264.044 382.762 263.907 382.1 263.869 381.394C263.834 380.705 263.932 379.986 264.164 379.235C264.389 378.494 264.803 377.727 265.406 376.935ZM267.379 379.889C266.308 381.297 265.959 382.598 266.331 383.793C266.704 384.987 267.695 386.211 269.306 387.463L269.74 387.792C271.477 389.111 273.02 389.841 274.37 389.984C275.729 390.133 276.973 389.467 278.1 387.984C279.001 386.8 279.208 385.531 278.722 384.176C278.238 382.838 277.141 381.52 275.432 380.223C273.724 378.926 272.183 378.241 270.809 378.169C269.437 378.113 268.294 378.686 267.379 379.889Z" fill="white"/>
  </g>
  <mask id="mask1_975_307" style="mask-type:luminance" maskUnits="userSpaceOnUse" x="19" y="23" width="345" height="345">
  <path d="M19.9668 23.6582V367.23H363.392V23.6582H19.9668ZM362.254 202.206C347.598 184.188 325.266 172.643 300.288 172.643C293.798 172.643 287.499 173.442 281.449 174.91C294.887 186.336 306.517 199.829 315.881 214.87H315.901C316.171 215.299 316.431 215.749 316.7 216.188C316.84 216.418 316.98 216.638 317.119 216.868H317.109C328.61 235.944 336.487 257.447 339.732 280.408C334.92 288.768 329.399 296.718 323.189 304.219L322.9 304.558C313.825 315.465 303.402 325.233 291.922 333.592C281.629 341.093 270.507 347.425 258.867 352.439C248.245 357.003 237.293 360.449 226.092 362.756C230.065 359.06 233.649 354.956 236.804 350.521C245.978 337.617 251.439 321.897 251.569 304.918C251.569 304.748 251.579 304.578 251.579 304.409C251.579 303.909 251.549 303.42 251.539 302.92C251.539 302.811 251.529 302.691 251.529 302.581H251.539C251.2 286.611 246.158 271.779 237.742 259.425C241.656 256.588 245.33 253.392 248.714 249.846C251.879 246.531 254.744 242.975 257.22 239.27C262.092 231.999 265.696 224.039 267.922 215.599C269.659 209.027 270.537 202.246 270.537 195.434C270.537 186.495 269.03 177.696 266.055 169.267L266.993 167.938H359.309L360.297 168.777C361.685 177.567 362.384 186.535 362.384 195.434C362.394 197.701 362.344 199.959 362.254 202.206Z" fill="white"/>
  </mask>

  <g id="circle_health" style="cursor: pointer">
    <title id="catTitle">UP Health</title>
    <g mask="url(#mask1_975_307)">
      <path d="M191.68 320.289C260.6 320.289 316.471 264.394 316.471 195.444C316.471 126.494 260.6 70.5996 191.68 70.5996C122.76 70.5996 66.8887 126.494 66.8887 195.444C66.8887 264.394 122.76 320.289 191.68 320.289Z" stroke="url(#paint3_linear_975_307)" stroke-width="90" stroke-miterlimit="10"/>
    </g>
    <path opacity="0.5" d="M192.07 45.341C133.908 44.5121 74.6468 75.4935 47.1328 139.744C47.7318 136.328 53.8615 109.821 78.0111 84.4124C101.242 58.994 142.503 34.6644 192.07 35.4434C241.587 34.6344 282.898 59.034 305.87 84.6022C329.77 110.17 335.32 136.907 334.791 140.742C308.455 77.1415 250.263 45.341 192.07 45.341Z" fill="white"/>
    <path d="M69.8509 121.475L84.6715 129.014C86.2695 129.826 87.5275 130.893 88.4454 132.215C89.3687 133.526 89.8552 135.049 89.9051 136.784C89.9446 138.513 89.4402 140.406 88.392 142.463C86.897 145.398 84.9907 147.242 82.6732 147.996C80.3507 148.734 77.9099 148.453 75.351 147.151L60.5931 139.645L62.5085 135.886L76.9374 143.225C78.8488 144.197 80.4876 144.465 81.8538 144.029C83.22 143.593 84.3581 142.483 85.2679 140.697C85.8957 139.465 86.1924 138.353 86.1579 137.363C86.1182 136.356 85.7738 135.458 85.1244 134.668C84.47 133.861 83.5474 133.156 82.3567 132.55L67.9434 125.219L69.8509 121.475Z" fill="white"/>
    <path d="M80.0059 107.575C82.0743 104.982 84.1151 103.513 86.1282 103.169C88.1413 102.825 90.1053 103.416 92.0204 104.942C92.8908 105.635 93.6104 106.433 94.1792 107.336C94.746 108.223 95.087 109.214 95.202 110.309C95.3079 111.398 95.133 112.585 94.6771 113.87C94.2286 115.147 93.4197 116.518 92.2502 117.984L90.5399 120.128L98.0718 126.13L95.4405 129.429L75.3463 113.417L80.0059 107.575ZM82.5656 109.975L80.7127 112.298L87.791 117.938L89.2273 116.137C90.0532 115.102 90.6357 114.127 90.9749 113.213C91.3049 112.292 91.3541 111.432 91.1223 110.633C90.8905 109.834 90.3394 109.088 89.4689 108.394C88.3052 107.467 87.158 107.13 86.0271 107.382C84.9035 107.626 83.7496 108.49 82.5656 109.975Z" fill="white"/>
    <path d="M129.078 100.402L125.906 103.16L118.295 94.4092L109.351 102.185L116.963 110.936L113.778 113.705L96.917 94.3213L100.102 91.5523L106.998 99.4808L115.942 91.7045L109.045 83.7761L112.217 81.0186L129.078 100.402Z" fill="white"/>
    <path d="M129.777 77.0227C131.283 76.162 132.753 75.7337 134.187 75.7377C135.62 75.7418 136.952 76.1477 138.183 76.9555C139.414 77.7633 140.483 78.9606 141.389 80.5474L142.487 82.4699L131.203 88.9162C132.18 90.5306 133.338 91.5419 134.678 91.95C136.028 92.3523 137.462 92.1202 138.978 91.2537C140.057 90.6372 140.966 89.983 141.705 89.2911C142.448 88.5832 143.162 87.7641 143.846 86.8338L145.51 89.7481C144.892 90.6275 144.197 91.4088 143.427 92.092C142.656 92.7752 141.66 93.4657 140.438 94.1636C138.779 95.1115 137.135 95.6256 135.507 95.7059C133.883 95.7702 132.349 95.365 130.904 94.4904C129.47 93.61 128.209 92.2188 127.123 90.3166C126.042 88.4246 125.445 86.6343 125.331 84.9456C125.217 83.2569 125.542 81.7352 126.308 80.3806C127.073 79.0259 128.23 77.9066 129.777 77.0227ZM131.319 79.7233C130.189 80.3688 129.482 81.2584 129.198 82.392C128.924 83.5199 129.13 84.8256 129.816 86.3093L137.511 81.9129C137.019 81.0744 136.449 80.4082 135.803 79.9142C135.166 79.4144 134.468 79.1384 133.71 79.0863C132.961 79.0283 132.164 79.2406 131.319 79.7233Z" fill="white"/>
    <path d="M149.592 67.8768C151.904 67.0285 153.835 66.8997 155.388 67.4904C156.952 68.077 158.131 69.4536 158.925 71.6203L163.431 83.9109L160.674 84.9228L158.982 82.6053L158.849 82.6538C158.574 83.5035 158.24 84.2438 157.847 84.8747C157.454 85.5056 156.933 86.0589 156.283 86.5344C155.648 87.0169 154.813 87.448 153.779 87.8277C152.689 88.2276 151.643 88.3871 150.639 88.3062C149.632 88.2143 148.729 87.8468 147.931 87.2037C147.134 86.5606 146.503 85.6067 146.039 84.3418C145.35 82.4611 145.53 80.7914 146.581 79.3325C147.643 77.8696 149.576 76.5677 152.379 75.4266L155.506 74.1478L155.155 73.1909C154.692 71.9261 154.064 71.1333 153.272 70.8125C152.491 70.4877 151.567 70.5211 150.5 70.913C149.586 71.2482 148.749 71.7053 147.987 72.2844C147.225 72.8634 146.508 73.4948 145.834 74.1787L143.576 71.9005C144.294 71.1004 145.165 70.3439 146.19 69.6309C147.226 68.9139 148.36 68.3291 149.592 67.8768ZM156.385 76.5955L154.054 77.5444C152.142 78.3213 150.903 79.15 150.34 80.0307C149.776 80.9114 149.684 81.8687 150.063 82.9025C150.394 83.8044 150.905 84.3654 151.598 84.5854C152.286 84.7944 153.07 84.7373 153.951 84.4142C155.294 83.9214 156.266 83.134 156.868 82.052C157.477 80.9549 157.51 79.664 156.966 78.1792L156.385 76.5955Z" fill="white"/>
    <path d="M171.965 82.0489L167.918 82.968L161.877 56.3021L165.924 55.3831L171.965 82.0489Z" fill="white"/>
    <path d="M184.034 77.2164C184.569 77.1522 185.093 77.0422 185.606 76.8863C186.117 76.7188 186.58 76.5395 186.994 76.3482L187.364 79.4541C186.934 79.7063 186.366 79.9454 185.661 80.1716C184.956 80.3977 184.214 80.5575 183.434 80.651C182.34 80.7822 181.335 80.7198 180.419 80.4638C179.502 80.1963 178.733 79.6453 178.115 78.811C177.496 77.9767 177.092 76.7686 176.903 75.1865L175.665 64.8045L173.029 65.1206L172.81 63.2885L175.466 61.5011L176.317 57.2046L178.901 56.8948L179.413 61.1872L184.947 60.5236L185.32 63.6469L179.785 64.3105L181.017 74.6402C181.134 75.6173 181.465 76.315 182.011 76.7333C182.556 77.1517 183.231 77.3127 184.034 77.2164Z" fill="white"/>
    <path d="M194.745 52.3825L194.523 59.2503C194.5 59.9646 194.455 60.6606 194.386 61.3383C194.329 62.0164 194.271 62.542 194.212 62.9153L194.44 62.9225C194.872 62.2562 195.394 61.7158 196.005 61.3013C196.617 60.8752 197.296 60.5624 198.041 60.3632C198.798 60.1642 199.598 60.0781 200.442 60.1046C201.93 60.1514 203.187 60.4429 204.213 60.9792C205.24 61.5038 206.012 62.2959 206.529 63.3554C207.058 64.4152 207.296 65.7765 207.242 67.4393L206.834 80.1211L202.704 79.9912L203.088 68.0823C203.136 66.5718 202.862 65.432 202.265 64.663C201.669 63.8824 200.72 63.4716 199.42 63.4307C198.166 63.3913 197.162 63.6234 196.407 64.1272C195.664 64.6196 195.118 65.3702 194.769 66.379C194.42 67.3761 194.222 68.6006 194.176 70.0526L193.865 79.7132L189.735 79.5834L190.615 52.2527L194.745 52.3825Z" fill="white"/>
  </g>
  <mask id="mask2_975_307" style="mask-type:luminance" maskUnits="userSpaceOnUse" x="128" y="80" width="344" height="345">
  <path d="M128.572 80.7578V424.33H471.997V80.7578H128.572ZM335.027 350.522C334.907 350.931 334.777 351.341 334.657 351.75C334.587 352.01 334.518 352.26 334.438 352.519H334.428C326.441 379.446 311.955 403.606 292.777 423.151C271.533 422.233 250.957 417.439 231.51 408.839C216.126 402.038 202.009 393.109 189.331 382.222C199.514 379.915 208.958 375.651 217.274 369.858H217.264C220.898 367.321 224.332 364.504 227.487 361.418C215.936 363.905 203.956 365.234 191.677 365.234C184.688 365.234 177.8 364.804 171.031 363.975C166.05 358.192 161.437 352.07 157.264 345.688C139.145 317.932 129.571 285.723 129.571 252.534C129.571 250.297 129.621 248.03 129.71 245.762C144.366 263.79 166.688 275.336 191.677 275.336C202.838 275.336 213.46 273.018 223.114 268.854C224.432 275.096 226.508 281.158 229.354 286.991C229.733 287.76 230.132 288.519 230.532 289.278C233.107 294.142 236.172 298.736 239.666 302.931L239.956 303.261C253.064 318.841 271.353 328.659 291.45 330.916C294.465 331.256 297.44 331.426 300.295 331.426C314.691 331.426 328.597 327.501 340.667 320.27C339.699 330.647 337.772 340.754 335.007 350.512H335.027V350.522Z" fill="white"/>
  </mask>

  <g id="circle_home" style="cursor: pointer">
    <title id="catTitle">UP Home</title>
    <g mask="url(#mask2_975_307)">
      <path d="M300.285 377.388C369.205 377.388 425.076 321.493 425.076 252.544C425.076 183.594 369.205 127.699 300.285 127.699C231.365 127.699 175.494 183.594 175.494 252.544C175.494 321.493 231.365 377.388 300.285 377.388Z" stroke="url(#paint4_linear_975_307)" stroke-width="90" stroke-miterlimit="10"/>
      <path opacity="0.5" d="M300.883 102.271C242.741 101.272 183.111 132.084 155.197 196.673C156.156 193.507 162.495 167.24 186.744 142.031C210.075 116.803 251.316 92.6227 300.893 93.3917C350.401 92.5827 391.731 116.863 414.713 142.261C438.623 167.649 444.184 194.136 443.614 197.682C417.269 134.071 359.076 102.271 300.883 102.271Z" fill="white"/>
    </g>
    <path d="M334.834 115.956C338.121 116.409 340.426 117.413 341.749 118.967C343.073 120.521 343.567 122.511 343.232 124.937C343.08 126.039 342.761 127.065 342.274 128.015C341.801 128.955 341.123 129.755 340.239 130.413C339.357 131.061 338.247 131.517 336.908 131.782C335.582 132.048 333.989 132.053 332.131 131.797L329.414 131.423L328.096 140.962L323.916 140.386L327.431 114.936L334.834 115.956ZM334.077 119.382L331.133 118.976L329.895 127.941L332.177 128.256C333.489 128.437 334.625 128.439 335.584 128.264C336.544 128.077 337.309 127.68 337.878 127.072C338.447 126.465 338.808 125.61 338.96 124.508C339.164 123.034 338.868 121.875 338.074 121.033C337.29 120.192 335.958 119.641 334.077 119.382Z" fill="white"/>
    <path d="M318.241 114.397L319.337 130.983C319.456 132.771 319.181 134.396 318.514 135.857C317.859 137.317 316.798 138.509 315.331 139.432C313.864 140.344 311.978 140.87 309.673 141.012C306.385 141.214 303.824 140.508 301.99 138.896C300.167 137.271 299.161 135.027 298.972 132.163L297.88 115.647L302.093 115.389L303.16 131.536C303.302 133.675 303.909 135.222 304.983 136.177C306.056 137.132 307.593 137.548 309.594 137.426C310.975 137.341 312.083 137.032 312.917 136.5C313.762 135.955 314.359 135.203 314.706 134.242C315.065 133.27 315.2 132.117 315.112 130.785L314.046 114.655L318.241 114.397Z" fill="white"/>
    <path d="M364.303 154.02L360.453 152.339L365.096 141.708L354.237 136.968L349.594 147.599L345.727 145.911L356.013 122.362L359.879 124.05L355.672 133.682L366.531 138.422L370.738 128.79L374.589 130.471L364.303 154.02Z" fill="white"/>
    <path d="M387.744 158.206C386.813 159.528 385.813 160.581 384.746 161.365C383.679 162.148 382.564 162.663 381.403 162.908C380.248 163.144 379.074 163.123 377.879 162.845C376.692 162.557 375.513 162.003 374.342 161.183C373.248 160.417 372.373 159.533 371.717 158.53C371.069 157.518 370.655 156.427 370.475 155.256C370.312 154.084 370.409 152.857 370.767 151.576C371.124 150.295 371.768 148.993 372.699 147.671C373.933 145.917 375.281 144.643 376.743 143.849C378.221 143.053 379.752 142.73 381.336 142.881C382.921 143.032 384.496 143.655 386.06 144.751C387.528 145.779 388.598 147.007 389.269 148.436C389.94 149.864 390.161 151.414 389.931 153.084C389.7 154.754 388.971 156.462 387.744 158.206ZM376.183 150.11C375.367 151.27 374.807 152.359 374.506 153.378C374.213 154.404 374.21 155.346 374.494 156.204C374.786 157.052 375.402 157.805 376.342 158.464C377.283 159.122 378.203 159.444 379.101 159.43C380.007 159.406 380.889 159.079 381.747 158.45C382.606 157.82 383.443 156.926 384.26 155.766C385.076 154.606 385.628 153.527 385.917 152.527C386.212 151.517 386.21 150.593 385.912 149.755C385.62 148.907 385 148.15 384.049 147.485C382.648 146.503 381.295 146.257 379.991 146.746C378.687 147.235 377.417 148.356 376.183 150.11Z" fill="white"/>
    <path d="M413.678 170.438C415.13 172.062 415.801 173.658 415.693 175.225C415.592 176.801 414.611 178.413 412.751 180.06L403.22 188.5L400.468 185.421L409.446 177.471C410.552 176.492 411.194 175.54 411.373 174.614C411.552 173.689 411.252 172.789 410.471 171.916C409.378 170.693 408.195 170.16 406.921 170.318C405.664 170.477 404.289 171.217 402.797 172.538L395.069 179.381L392.318 176.302L401.296 168.352C402.033 167.699 402.562 167.059 402.881 166.431C403.218 165.805 403.337 165.191 403.239 164.589C403.15 163.979 402.844 163.382 402.321 162.796C401.564 161.949 400.766 161.443 399.927 161.279C399.096 161.123 398.205 161.27 397.255 161.72C396.314 162.162 395.299 162.865 394.211 163.828L386.931 170.275L384.179 167.196L398.752 154.291L400.895 156.689L399.32 158.858L399.472 159.029C400.247 158.875 400.992 158.873 401.707 159.022C402.438 159.172 403.125 159.448 403.767 159.85C404.418 160.243 405.005 160.733 405.528 161.318C406.496 162.401 407.119 163.485 407.396 164.57C407.682 165.646 407.599 166.714 407.145 167.772L407.356 168.008C408.552 167.763 409.702 167.879 410.805 168.358C411.908 168.836 412.866 169.529 413.678 170.438Z" fill="white"/>
    <path d="M425.705 188.931C426.543 190.449 426.947 191.923 426.919 193.352C426.89 194.781 426.46 196.102 425.629 197.314C424.798 198.526 423.58 199.569 421.973 200.443L420.027 201.502L413.756 190.133C412.12 191.076 411.087 192.212 410.655 193.54C410.228 194.879 410.436 196.313 411.279 197.841C411.879 198.928 412.52 199.847 413.201 200.596C413.898 201.35 414.707 202.077 415.628 202.776L412.678 204.381C411.806 203.748 411.035 203.041 410.363 202.26C409.691 201.479 409.016 200.473 408.337 199.242C407.415 197.57 406.927 195.922 406.875 194.297C406.838 192.677 407.27 191.155 408.172 189.731C409.079 188.317 410.495 187.086 412.421 186.038C414.337 184.996 416.142 184.434 417.837 184.352C419.532 184.269 421.052 184.622 422.398 185.411C423.743 186.199 424.845 187.372 425.705 188.931ZM422.971 190.419C422.343 189.281 421.463 188.559 420.332 188.255C419.205 187.961 417.893 188.142 416.393 188.798L420.67 196.552C421.519 196.076 422.197 195.521 422.703 194.885C423.215 194.26 423.504 193.57 423.569 192.814C423.64 192.069 423.441 191.27 422.971 190.419Z" fill="white"/>
  </g>
  <defs>
    <radialGradient id="paint0_radial_975_307" cx="0" cy="0" r="1" gradientUnits="userSpaceOnUse" gradientTransform="translate(234.607 538.517) rotate(90) scale(12.4845 234.607)">
      <stop stop-color="#D5D5D5" stop-opacity="0.6"/>
      <stop offset="0.0001" stop-color="#C2C2C2" stop-opacity="0.75"/>
      <stop offset="1" stop-color="#D9D9D9" stop-opacity="0"/>
    </radialGradient>
    <linearGradient id="paint1_linear_975_307" x1="171.713" y1="97.0675" x2="182.204" y2="504.56" gradientUnits="userSpaceOnUse">
      <stop offset="0.0003" stop-color="#DA8227"/>
      <stop offset="0.213542" stop-color="#EC892B"/>
      <stop offset="0.447917" stop-color="#FF9425"/>
      <stop offset="1" stop-color="#FF9425"/>
    </linearGradient>
    <linearGradient id="paint2_linear_975_307" x1="280.312" y1="66.5479" x2="313.162" y2="534.269" gradientUnits="userSpaceOnUse">
      <stop offset="0.0003" stop-color="#DA8227"/>
      <stop offset="0.213542" stop-color="#EC892B"/>
      <stop offset="0.447917" stop-color="#FF9425"/>
      <stop offset="1" stop-color="#FF9425"/>
    </linearGradient>
    <linearGradient id="paint3_linear_975_307" x1="330.947" y1="195.444" x2="61.6345" y2="86.3851" gradientUnits="userSpaceOnUse">
      <stop stop-color="#DFD337"/>
      <stop offset="0.291667" stop-color="#F4E532"/>
      <stop offset="0.494792" stop-color="#F6E94B"/>
      <stop offset="0.682292" stop-color="#F6E94B"/>
      <stop offset="0.822917" stop-color="#F6E94B"/>
      <stop offset="1" stop-color="#F6E94B"/>
    </linearGradient>
    <linearGradient id="paint4_linear_975_307" x1="270.814" y1="419.772" x2="329.812" y2="85.3209" gradientUnits="userSpaceOnUse">
      <stop stop-color="#365F79"/>
      <stop offset="0.0001" stop-color="#366DA4"/>
      <stop offset="0.244792" stop-color="#4079B0"/>
      <stop offset="0.416667" stop-color="#3E81C4"/>
      <stop offset="0.9999" stop-color="#418AD3"/>
    </linearGradient>
  </defs>
</svg>